<?xml version="1.0" encoding="utf-8"?>
<!-- Generator: Adobe Illustrator 21.0.2, SVG Export Plug-In . SVG Version: 6.00 Build 0)  -->
<svg version="1.1" id="Layer_1" xmlns="http://www.w3.org/2000/svg" xmlns:xlink="http://www.w3.org/1999/xlink" x="0px" y="0px"
	 viewBox="0 0 419.5 419.5" style="enable-background:new 0 0 419.5 419.5;" xml:space="preserve">
<style type="text/css">
	.st0{fill:#B3B2B1;}
	.st1{fill:#00567D;}
</style>
<g>
	<path class="st0" d="M191.2,228.8h-5.9v-2.3h14.2v2.3h-5.8v18.4h-2.5V228.8z"/>
	<path class="st0" d="M202.3,226.4h2.5v8h11v-8h2.5v20.7h-2.5v-10.4h-11v10.4h-2.5V226.4z"/>
	<path class="st0" d="M223.2,226.4h10.9v2.3h-8.5v5.9h8.5v2.3h-8.5v7.9h8.5v2.3h-10.9V226.4z"/>
</g>
<g>
	<path class="st1" d="M73.1,274.8c0.5,1.9,1.9,2.8,4,2.8c2,0,3.3-1.2,3.3-3.1c0-2-1.5-2.5-3.7-3.6c-3.7-1.8-5.7-3.2-5.7-6.3
		c0-3.3,2.5-5.7,6.2-5.7c3.1,0,5.2,1.2,6,3.4l-2.6,1.4c-0.8-1.3-1.8-1.9-3.1-1.9c-1.8,0-3,1-3,2.6c0,2,1.6,2.6,3.9,3.7
		c3.7,1.7,5.4,3.2,5.4,6.1c0,3.9-2.6,6.4-6.9,6.4c-3.5,0-5.9-1.7-6.6-4.7L73.1,274.8z"/>
	<path class="st1" d="M94.2,280.2h-3.4v-17.9h-5.5v-2.9h14.4v2.9h-5.5V280.2z"/>
	<path class="st1" d="M111.4,274.8h-8.2l-2.4,5.3h-3.5l10-21.6l10,21.6h-3.6L111.4,274.8z M110.3,272l-2.1-4.7
		c-0.2-0.6-0.5-1.3-0.8-2.3c-0.3,1-0.5,1.8-0.8,2.3l-2.1,4.7H110.3z"/>
	<path class="st1" d="M137.4,267.1c-0.2,1-0.5,1.9-1,2.9l-5.4,11.1l-5.4-11.3c-0.4-0.8-0.8-1.7-1-2.6c0,1-0.2,1.9-0.4,2.9l-2.2,10.2
		h-3.1l4.9-21.6l6.1,13c0.2,0.4,0.6,1.3,1.1,2.8c0.4-1.2,0.9-2.1,1.2-2.8l6-13l5,21.6h-3.1l-2.3-10.2
		C137.7,269.5,137.6,268.6,137.4,267.1z"/>
	<path class="st1" d="M145.9,259.4h11.6v2.9h-8.2v5.2h8.2v3h-8.2v9.7h-3.4V259.4z"/>
	<path class="st1" d="M179.2,277.5c-2.1,2.1-4.9,3.2-7.8,3.2c-3,0-5.8-1.1-7.9-3.2c-2.1-2.1-3.2-4.7-3.2-7.7c0-3,1.1-5.6,3.2-7.7
		c2.1-2.1,4.9-3.2,7.9-3.2c3,0,5.7,1.1,7.8,3.2c2.1,2.1,3.2,4.8,3.2,7.7C182.4,272.8,181.3,275.5,179.2,277.5z M176.7,264.3
		c-1.4-1.5-3.3-2.3-5.3-2.3c-2,0-3.9,0.8-5.4,2.3c-1.5,1.5-2.2,3.4-2.2,5.5c0,2.1,0.8,4,2.2,5.5c1.5,1.5,3.3,2.3,5.4,2.3
		c2,0,3.9-0.8,5.3-2.3s2.2-3.4,2.2-5.5C178.9,267.7,178.1,265.8,176.7,264.3z"/>
	<path class="st1" d="M189.4,280.2h-3.2v-20.7h4.7c2.2,0,3.9,0.2,5.2,1.2c1.2,1,2,2.6,2,4.6c0,3.3-1.6,5.2-4.8,5.6l7.1,9.4h-3.8
		l-6.9-9.3h-0.4V280.2z M190.3,268.3c3,0,4.4-0.3,4.4-2.8c0-2.6-1.4-3.1-4.4-3.1h-0.6v5.9H190.3z"/>
	<path class="st1" d="M202.5,259.4h4.6c3.9,0,6.9,0,9.4,1.9c2.4,1.8,3.7,4.7,3.7,8.4s-1.3,6.6-3.7,8.4c-2.4,1.9-5.1,1.9-8.5,1.9
		c-0.3,0-0.6,0-0.9,0h-4.6V259.4z M207.1,277.1c0.6,0,1.1,0,1.6,0c2.3,0,4.1-0.1,5.5-1.4c1.6-1.3,2.3-3.3,2.3-6s-0.8-4.6-2.3-6
		c-1.5-1.3-3.5-1.4-5.9-1.4c-0.4,0-0.8,0-1.2,0h-1.2v14.7H207.1z"/>
	<path class="st1" d="M232.7,259.4h3.4v8.6l7.5-8.6h4.1l-8.2,9.2l9.2,11.5h-4.4l-8.2-10.6v10.6h-3.4V259.4z"/>
	<path class="st1" d="M250.8,259.4h3.4v20.7h-3.4V259.4z"/>
	<path class="st1" d="M265.7,280.2h-3.4v-17.9h-5.5v-2.9h14.4v2.9h-5.5V280.2z"/>
	<path class="st1" d="M282.9,262c-4.6,0-7.7,3.2-7.7,7.8c0,4.6,3.2,7.7,7.3,7.7c2.5,0,4.7-0.9,6.7-2.6v3.8c-1.8,1.3-3.9,1.9-6.4,1.9
		c-3.2,0-5.9-1.1-7.9-3.1s-3.1-4.8-3.1-7.8c0-3,1.1-5.8,3.2-7.8c2.1-2,4.8-3.1,7.9-3.1c2.5,0,4.7,0.7,6.7,2.1l-0.2,3.4
		C287.4,262.8,285.3,262,282.9,262z"/>
	<path class="st1" d="M293.5,259.4h3.4v7.7h10.2v-7.7h3.4v20.7h-3.4v-10.1h-10.2v10.1h-3.4V259.4z"/>
	<path class="st1" d="M315.2,259.4h11.6v2.9h-8.2v5.2h8.2v3h-8.2v6.7h8.2v3h-11.6V259.4z"/>
	<path class="st1" d="M330.6,258.6l13.2,12.7c0.8,0.8,1.6,1.7,2.3,2.5v-14.4h3.1V281l-13.4-12.9c-0.8-0.7-1.4-1.5-2-2.3v14.4h-3.1
		V258.6z"/>
</g>
<g>
	<path class="st0" d="M151,294.2c-2.2,0-4.4,0.9-5.9,2.5c-1.6,1.7-2.4,3.7-2.4,6.1c0,1.9,0.5,3.5,1.4,4.9c1.7,2.3,4.2,3.7,7,3.7
		c2.6,0,4.9-1.1,6.8-3.3v3.3c-2.1,1.5-4.5,2.3-7,2.3c-2.2,0-4.3-0.7-6.1-1.9c-3-2.1-4.7-5.2-4.7-8.9c0-3.2,1.1-5.8,3.2-7.9
		c2.1-2,4.7-3,7.7-3c2.5,0,4.7,0.8,6.8,2.2v3.2C155.9,295.2,153.7,294.2,151,294.2z"/>
	<path class="st0" d="M180.1,310.5c-2.1,2.1-5,3.2-7.9,3.2c-2.9,0-5.7-1.2-7.8-3.2c-2.1-2.1-3.2-4.7-3.2-7.7c0-3,1.1-5.7,3.2-7.7
		c2.1-2,4.9-3.2,7.8-3.2s5.8,1.1,7.9,3.2c2.1,2.1,3.2,4.8,3.2,7.7C183.3,305.8,182.2,308.5,180.1,310.5z M178.2,308.9
		c1.6-1.6,2.5-3.7,2.5-6c0-2.3-0.9-4.5-2.5-6.1c-1.6-1.6-3.7-2.5-6-2.5c-2.3,0-4.4,0.9-6,2.5c-1.6,1.7-2.5,3.8-2.5,6.1
		c0,2.3,0.9,4.4,2.5,6c1.7,1.7,3.7,2.5,6,2.5C174.5,311.4,176.6,310.5,178.2,308.9z"/>
	<path class="st0" d="M190.6,299.1l-2.6,14.1h-2.4l4.2-21.6l7.3,17.1l7.3-17.1l4.2,21.6H206l-2.6-14.1L197,314L190.6,299.1z"/>
	<path class="st0" d="M214,313.2h-2.4v-20.7h3.7c0.2,0,0.5,0,0.7,0c2.1,0,3.8,0.1,5.2,1c1.3,0.9,2.1,2.6,2.1,4.7
		c0,2-0.8,3.7-2.1,4.7c-1.4,1-3.1,1-5.2,1c-0.2,0-0.5,0-0.7,0H214V313.2z M215.3,301.6c3.6,0,5.4-0.5,5.4-3.3c0-3-1.8-3.6-5.4-3.6
		H214v6.9H215.3z"/>
	<path class="st0" d="M240.7,313.2h-2.7l-2.7-6.4h-8.1l-2.7,6.4h-2.7l9.4-21.6L240.7,313.2z M228,304.7h6.6l-3.3-7.6L228,304.7z"/>
	<path class="st0" d="M242.9,291.6l15.2,16.6v-15.8h2.3V314l-15.2-16.4v15.6h-2.3V291.6z"/>
	<path class="st0" d="M269.9,303.7l-7-11.3h2.8l5.4,9l5.4-9h2.8l-7,11.3v9.5h-2.5V303.7z"/>
</g>
<rect x="196.1" y="118.2" class="st0" width="27.3" height="4.9"/>
<rect x="196.1" y="142.4" class="st0" width="27.3" height="4.9"/>
<polygon class="st1" points="170.8,105.6 170.8,136.7 241.8,136.7 241.8,200.7 177.8,200.7 177.8,142.4 170.8,142.4 170.8,207.7 
	248.7,207.7 248.7,129.8 177.8,129.8 177.8,112.5 241.8,112.5 241.8,123.1 248.7,123.1 248.7,105.6 "/>
</svg>
